{
  "accessors": [
    {
      "bufferView": 2,
      "componentType": 5126,
      "count": 1756,
      "max": [
        3.2560200691223145,
        9.2872896194458008,
        2.5072700977325439
      ],
      "min": [
        -1.6732699871063232,
        -0.10481999814510345,
        -2.4974899291992188
      ],
      "type": "VEC3"
    },
    {
      "bufferView": 2,
      "byteOffset": 21072,
      "componentType": 5126,
      "count": 1756,
      "max": [
        0.99958491325378418,
        0.99917203187942505,
        0.9999426007270813
      ],
      "min": [
        -0.99852591753005981,
        -0.99983012676239014,
        -0.99998205900192261
      ],
      "type": "VEC3"
    },
    {
      "bufferView": 3,
      "componentType": 5126,
      "count": 1756,
      "max": [
        0.99856853485107422,
        0.9999966025352478,
        0.99982756376266479,
        1
      ],
      "min": [
        -0.99583703279495239,
        -0.95727604627609253,
        -0.99999994039535522,
        -1
      ],
      "type": "VEC4"
    },
    {
      "bufferView": 1,
      "componentType": 5126,
      "count": 1756,
      "max": [
        1.7522200345993042,
        0.99809998273849487
      ],
      "min": [
        -0.75221997499465942,
        0.0010799999581649899
      ],
      "type": "VEC2"
    },
    {
      "bufferView": 1,
      "byteOffset": 14048,
      "componentType": 5126,
      "count": 1756,
      "max": [
        1.7522200345993042,
        0.99809998273849487
      ],
      "min": [
        -0.75221997499465942,
        0.0010799999581649899
      ],
      "type": "VEC2"
    },
    {
      "bufferView": 0,
      "componentType": 5125,
      "count": 8592,
      "max": [
        1755
      ],
      "min": [
        0
      ],
      "type": "SCALAR"
    },
    {
      "bufferView": 2,
      "byteOffset": 42144,
      "componentType": 5126,
      "count": 9572,
      "max": [
        7.5443000793457031,
        10,
        2.4993400573730469
      ],
      "min": [
        -2.9030699729919434,
        0.18870000541210175,
        -2.503230094909668
      ],
      "type": "VEC3"
    },
    {
      "bufferView": 2,
      "byteOffset": 157008,
      "componentType": 5126,
      "count": 9572,
      "max": [
        1,
        1,
        1
      ],
      "min": [
        -1,
        -1,
        -1
      ],
      "type": "VEC3"
    },
    {
      "bufferView": 3,
      "byteOffset": 28096,
      "componentType": 5126,
      "count": 9572,
      "max": [
        1,
        1,
        1,
        1
      ],
      "min": [
        -1,
        -1,
        -1,
        -1
      ],
      "type": "VEC4"
    },
    {
      "bufferView": 1,
      "byteOffset": 28096,
      "componentType": 5126,
      "count": 9572,
      "max": [
        0.99905002117156982,
        0.99844002723693848
      ],
      "min": [
        0.00078000000212341547,
        0.0035000001080334187
      ],
      "type": "VEC2"
    },
    {
      "bufferView": 1,
      "byteOffset": 104672,
      "componentType": 5126,
      "count": 9572,
      "max": [
        0.99905002117156982,
        0.99844002723693848
      ],
      "min": [
        0.00078000000212341547,
        0.0035000001080334187
      ],
      "type": "VEC2"
    },
    {
      "bufferView": 0,
      "byteOffset": 34368,
      "componentType": 5125,
      "count": 24864,
      "max": [
        9571
      ],
      "min": [
        0
      ],
      "type": "SCALAR"
    }
  ],
  "asset": {
    "extras": {
      "author": "Arkady Gribachev (https://sketchfab.com/prephonat)",
      "license": "CC-BY-NC-4.0 (http://creativecommons.org/licenses/by-nc/4.0/)",
      "source": "https://sketchfab.com/3d-models/industrial-robot-74017754d6d443a1bc258da98b08e6fc",
      "title": "Industrial Robot"
    },
    "generator": "Sketchfab-9.31.1",
    "version": "2.0"
  },
  "bufferViews": [
    {
      "buffer": 0,
      "byteLength": 133824,
      "byteOffset": 0,
      "name": "floatBufferViews",
      "target": 34963
    },
    {
      "buffer": 0,
      "byteLength": 181248,
      "byteOffset": 133824,
      "byteStride": 8,
      "name": "floatBufferViews",
      "target": 34962
    },
    {
      "buffer": 0,
      "byteLength": 271872,
      "byteOffset": 315072,
      "byteStride": 12,
      "name": "floatBufferViews",
      "target": 34962
    },
    {
      "buffer": 0,
      "byteLength": 181248,
      "byteOffset": 586944,
      "byteStride": 16,
      "name": "floatBufferViews",
      "target": 34962
    }
  ],
  "buffers": [
    {
      "byteLength": 768192,
      "uri": "scene.bin"
    }
  ],
  "extensionsRequired": [
    "KHR_materials_pbrSpecularGlossiness"
  ],
  "extensionsUsed": [
    "KHR_materials_pbrSpecularGlossiness"
  ],
  "images": [
    {
      "uri": "textures/Base_New_diffuse.jpeg"
    },
    {
      "uri": "textures/Base_New_specularGlossiness.png"
    },
    {
      "uri": "textures/Base_New_normal.jpeg"
    },
    {
      "uri": "textures/Base_New_occlusion.png"
    },
    {
      "uri": "textures/Cloth_New_diffuse.jpeg"
    },
    {
      "uri": "textures/Cloth_New_specularGlossiness.png"
    },
    {
      "uri": "textures/Cloth_New_normal.jpeg"
    }
  ],
  "materials": [
    {
      "doubleSided": true,
      "emissiveFactor": [
        0,
        0,
        0
      ],
      "extensions": {
        "KHR_materials_pbrSpecularGlossiness": {
          "diffuseFactor": [
            1,
            1,
            1,
            1
          ],
          "diffuseTexture": {
            "index": 0,
            "texCoord": 0
          },
          "glossinessFactor": 1,
          "specularFactor": [
            1,
            1,
            1
          ],
          "specularGlossinessTexture": {
            "index": 1,
            "texCoord": 0
          }
        }
      },
      "name": "Base_New",
      "normalTexture": {
        "index": 2,
        "scale": 1,
        "texCoord": 0
      },
      "occlusionTexture": {
        "index": 3,
        "strength": 0,
        "texCoord": 0
      }
    },
    {
      "doubleSided": true,
      "emissiveFactor": [
        0,
        0,
        0
      ],
      "extensions": {
        "KHR_materials_pbrSpecularGlossiness": {
          "diffuseFactor": [
            1,
            1,
            1,
            1
          ],
          "diffuseTexture": {
            "index": 4,
            "texCoord": 0
          },
          "glossinessFactor": 1,
          "specularFactor": [
            1,
            1,
            1
          ],
          "specularGlossinessTexture": {
            "index": 5,
            "texCoord": 0
          }
        }
      },
      "name": "Cloth_New",
      "normalTexture": {
        "index": 6,
        "scale": 1,
        "texCoord": 0
      }
    }
  ],
  "meshes": [
    {
      "name": "mesh0.dat-Cloth-0_0",
      "primitives": [
        {
          "attributes": {
            "NORMAL": 1,
            "POSITION": 0,
            "TANGENT": 2,
            "TEXCOORD_0": 3,
            "TEXCOORD_1": 4
          },
          "indices": 5,
          "material": 1,
          "mode": 4
        }
      ]
    },
    {
      "name": "mesh1.dat-Base-0_0",
      "primitives": [
        {
          "attributes": {
            "NORMAL": 7,
            "POSITION": 6,
            "TANGENT": 8,
            "TEXCOORD_0": 9,
            "TEXCOORD_1": 10
          },
          "indices": 11,
          "material": 0,
          "mode": 4
        }
      ]
    }
  ],
  "nodes": [
    {
      "children": [
        1
      ],
      "name": "RootNode (gltf orientation matrix)",
      "rotation": [
        -0.70710678118654746,
        -0,
        -0,
        0.70710678118654757
      ]
    },
    {
      "children": [
        2
      ],
      "name": "RootNode (model correction matrix)"
    },
    {
      "children": [
        3,
        5
      ],
      "name": "Root"
    },
    {
      "children": [
        4
      ],
      "matrix": [
        1,
        0,
        0,
        0,
        0,
        -0,
        1,
        0,
        0,
        -1,
        -0,
        0,
        0,
        0,
        0,
        1
      ],
      "name": "mesh0.dat-Cloth-0"
    },
    {
      "mesh": 0,
      "name": "mesh0.dat-Cloth-0_0"
    },
    {
      "children": [
        6
      ],
      "matrix": [
        1,
        0,
        0,
        0,
        0,
        -0,
        1,
        0,
        0,
        -1,
        -0,
        0,
        0,
        0,
        0,
        1
      ],
      "name": "mesh1.dat-Base-0"
    },
    {
      "mesh": 1,
      "name": "mesh1.dat-Base-0_0"
    }
  ],
  "samplers": [
    {
      "magFilter": 9729,
      "minFilter": 9987,
      "wrapS": 10497,
      "wrapT": 10497
    }
  ],
  "scene": 0,
  "scenes": [
    {
      "name": "OSG_Scene",
      "nodes": [
        0
      ]
    }
  ],
  "textures": [
    {
      "sampler": 0,
      "source": 0
    },
    {
      "sampler": 0,
      "source": 1
    },
    {
      "sampler": 0,
      "source": 2
    },
    {
      "sampler": 0,
      "source": 3
    },
    {
      "sampler": 0,
      "source": 4
    },
    {
      "sampler": 0,
      "source": 5
    },
    {
      "sampler": 0,
      "source": 6
    }
  ]
}

